<svg width="28" height="28" viewBox="0 0 28 28" fill="none" xmlns="http://www.w3.org/2000/svg">
<g id="Add-28px">
<path id="Vector" d="M21.8794 12.8794H15.1206V6.12062C15.1206 5.50428 14.6163 5 14 5C13.3837 5 12.8794 5.50428 12.8794 6.12062V12.8794H6.12062C5.50428 12.8794 5 13.3837 5 14C5 14.3082 5.12607 14.5883 5.32918 14.7914C5.5323 14.9946 5.81245 15.1206 6.12062 15.1206H12.8794V21.8794C12.8794 22.1875 13.0054 22.4677 13.2086 22.6708C13.4117 22.8739 13.6918 23 14 23C14.6163 23 15.1206 22.4957 15.1206 21.8794V15.1206H21.8794C22.4957 15.1206 23 14.6163 23 14C23 13.3837 22.4957 12.8794 21.8794 12.8794Z" fill="#fff"/>
</g>
</svg>
